<svg xmlns="http://www.w3.org/2000/svg" viewBox="0 0 64 64">
  <path d="M18 30a14 14 0 0 1 27.5-6 10 10 0 0 1 2.5 20H20a12 12 0 1 1-2-24z" fill="#95a5a6"/>
  <g stroke="#ecf0f1" stroke-width="3" stroke-linecap="round">
    <line x1="24" y1="46" x2="24" y2="56"/>
    <line x1="20" y1="50" x2="28" y2="52"/>
    <line x1="20" y1="52" x2="28" y2="50"/>

    <line x1="32" y1="46" x2="32" y2="56"/>
    <line x1="28" y1="50" x2="36" y2="52"/>
    <line x1="28" y1="52" x2="36" y2="50"/>

    <line x1="40" y1="46" x2="40" y2="56"/>
    <line x1="36" y1="50" x2="44" y2="52"/>
    <line x1="36" y1="52" x2="44" y2="50"/>
  </g>
</svg>
